<svg width="46" height="46" viewBox="0 0 46 46" fill="none" xmlns="http://www.w3.org/2000/svg">
<path d="M23.0007 3.83325C12.4398 3.83325 3.83398 12.4391 3.83398 22.9999C3.83398 33.5608 12.4398 42.1666 23.0007 42.1666C33.5615 42.1666 42.1673 33.5608 42.1673 22.9999C42.1673 12.4391 33.5615 3.83325 23.0007 3.83325ZM32.1623 18.5916L21.2948 29.4591C21.0265 29.7274 20.6623 29.8808 20.279 29.8808C19.8957 29.8808 19.5315 29.7274 19.2632 29.4591L13.839 24.0349C13.2832 23.4791 13.2832 22.5591 13.839 22.0033C14.3948 21.4474 15.3148 21.4474 15.8707 22.0033L20.279 26.4116L30.1307 16.5599C30.6865 16.0041 31.6065 16.0041 32.1623 16.5599C32.7182 17.1158 32.7182 18.0166 32.1623 18.5916Z" fill="#D19200"/>
</svg>
