<svg width="90" height="28" viewBox="0 0 90 28" fill="none" xmlns="http://www.w3.org/2000/svg">
<rect x="0.5" y="0.5" width="89" height="27" rx="9.5" fill="white" stroke="#D30000"/>
<path d="M29.5028 20V8.36364H30.9119V13.5455H37.1165V8.36364H38.5256V20H37.1165V14.7955H30.9119V20H29.5028ZM51.1648 14.1818C51.1648 15.4091 50.9432 16.4697 50.5 17.3636C50.0568 18.2576 49.4489 18.947 48.6761 19.4318C47.9034 19.9167 47.0208 20.1591 46.0284 20.1591C45.036 20.1591 44.1534 19.9167 43.3807 19.4318C42.608 18.947 42 18.2576 41.5568 17.3636C41.1136 16.4697 40.892 15.4091 40.892 14.1818C40.892 12.9545 41.1136 11.8939 41.5568 11C42 10.1061 42.608 9.41667 43.3807 8.93182C44.1534 8.44697 45.036 8.20455 46.0284 8.20455C47.0208 8.20455 47.9034 8.44697 48.6761 8.93182C49.4489 9.41667 50.0568 10.1061 50.5 11C50.9432 11.8939 51.1648 12.9545 51.1648 14.1818ZM49.8011 14.1818C49.8011 13.1742 49.6326 12.3239 49.2955 11.6307C48.9621 10.9375 48.5095 10.4129 47.9375 10.0568C47.3693 9.70076 46.733 9.52273 46.0284 9.52273C45.3239 9.52273 44.6856 9.70076 44.1136 10.0568C43.5455 10.4129 43.0928 10.9375 42.7557 11.6307C42.4223 12.3239 42.2557 13.1742 42.2557 14.1818C42.2557 15.1894 42.4223 16.0398 42.7557 16.733C43.0928 17.4261 43.5455 17.9508 44.1136 18.3068C44.6856 18.6629 45.3239 18.8409 46.0284 18.8409C46.733 18.8409 47.3693 18.6629 47.9375 18.3068C48.5095 17.9508 48.9621 17.4261 49.2955 16.733C49.6326 16.0398 49.8011 15.1894 49.8011 14.1818ZM52.4134 9.61364V8.36364H61.1406V9.61364H57.4815V20H56.0724V9.61364H52.4134Z" fill="#D30000"/>
</svg>
