<svg width="90" height="28" viewBox="0 0 90 28" fill="none" xmlns="http://www.w3.org/2000/svg">
<rect x="0.5" y="0.5" width="89" height="27" rx="9.5" fill="white" stroke="#449F0C"/>
<path d="M37.7379 8.36364V20H36.3743L30.0334 10.8636H29.9197V20H28.5107V8.36364H29.8743L36.2379 17.5227H36.3516V8.36364H37.7379ZM40.5575 20V8.36364H47.5803V9.61364H41.9666V13.5455H47.2166V14.7955H41.9666V18.75H47.6712V20H40.5575ZM52.2337 20L49.0518 8.36364H50.4837L52.9155 17.8409H53.0291L55.5064 8.36364H57.0973L59.5746 17.8409H59.6882L62.12 8.36364H63.5518L60.37 20H58.9155L56.3473 10.7273H56.2564L53.6882 20H52.2337Z" fill="#449F0C"/>
</svg>
